<?xml version="1.0" encoding="UTF-8"?>
<svg version="1.1" viewBox="0 0 2048 752" width="2720" height="1000" xmlns="http://www.w3.org/2000/svg">
<path transform="translate(306,234)" d="m0 0 4 4 2 8v5l-2 3 1 8 2 7 1 14 14 24 10 16 4-2 11-12 2-3h2l2-4 15-16v-7h4v-2l4-2h3l-1 8h-2l-1 16 1 14 1 36 12-8 7-5-3-12h6l-1-7-2-2-9-2-6-5-3-4v-2h5v-7h3l4 2v-3l4 2 3 5 2 3v10l3 5 7 4 2-4 5 8v9l-2 4v13l4-4 4-6 3 1 2 5 4-1 1 1v11l-4 8-8 5-3 2v9l7-5h2v-2h2v10l6-2v7l-4 8-7 6-12 4-3 8 14-2-2 8h7l-2 4-4 5-5 8-5 6-10 1 1 3-3 1-1-2 1-2-4 2-1 8h4l-1 6-4 5 8 1-5 5-8 5-9 2-11-3-5-2-5 1-8 5 8 2-1 4 7 2-2 4-3 1v2h2v3l-8 4h-22l-7-3 5 5 4 5-3 1-6-2-5-5-2 9h-3v-2l-3 1-1-2v-6l-3-5-4-1h-7l-4 5-1 8-3 1-1 2h-2l-2-5 1-6-8 7-7 1 1-4 7-6-7 2h-22l-8-4v-3h2v-2l-4-2-1-3 7-2-1-4 8-2-10-6-6 1-9 3-5 1-10-3-5-4-5-3v-2l7-2v-2l-3-1-2-3v-5l4 1-1-8-3-1-1 3-2-1v-3l-9-1-7-7-6-11-4-3v-2h7l-2-7 2-1 12 2-2-7-9-4-7-3-6-7-2-6v-6l6 2v-10h2v2l6 2 3 3v-9l-10-6-4-6-1-3v-10l1-2 5 2 1-5 1-2 4 2 4 6v2h2v-13l-2-4v-9l5-8 2 4 7-4 3-5v-9l4-8 3-3h2v3l6-3 1 1v7h5l-2 5-7 6-10 3-2 8 5-1 1 3-3 10 16 11 4 2v-33l1-24-2-7 1-2h-2l-1-8 5 1 2 1v2l4-1 1 3-1 4 7 8 9 10 14 15 4 5 3 1 2-6 16-26 1-7v-14l5-16 1-9 3-9zm0 6 1 2zm1 21-4 9-1 7h2l3-4 2-1 1-9-1-2zm-75 18 1 2zm148 1m-74 4-4 5 1 4h7l2-2-4-7zm-6 11v3l14-1v-2zm2 4-7 2v1h23l-2-2-4-1zm-3 5-7 3-10 16-19 32-14 23v3h8l9-11 7-4h6l10 6 11-1 5 2v-19l-1 4-5-2 1 3-3-3h-2v2h-2l-2 2v-3l2-1-1-3 1-4h-2v-13l3-5v-2l6-2 7-1 7 1 5 4 2 3v12l-1 5 2 9-4-4h-2l-4 4-2-3v-5l6-4 2-5-1-6-3-5-9-3-7 4-3 6 1 8 6 5h3v-4l-3-1-1-11 1-1h7l2 6v6l-3 1-1 6v18l3 1 7 1 6 4 9-1 5 3h10l1 1h16l-1-5-17-28-13-22-9-15-4-5-6-2zm-46 1-2 14v14l2 15 3 6h2l8-14-1-13-1-11-9-10zm106 0-6 6v2h-2l-2 3-2 19 1 7 7 12h3l3-12 1-11-1-23zm48 32m-205 3-6 4-2 12h2l3-5 3-1v5l5-1 1-8-3-6zm206 0-2 4v9l5 3 1-5 3 1 3 4 1-2-2-10-6-4zm-180 11-1 1v27l3 14 1 2 3-1 10-17-2-16-4-4-9-6zm156 0-11 8-2 2-2 16 11 18h2l3-10 1-6v-28zm-72 5-1 2h2zm95 6-1 1-2 26-4 18-4 9 1 3 5-5v-5l4 4 4 7 2-3 1-3v-7l-3-3-3-9 1-17 4 2 6 7 2-1v-12l-7-4h-2l-2-5zm-202 1-3 6-9 5v11l2 2 6-7 2-1v-2l2 1 1 10 2 1v-13l-1-13zm69 5-6 4-14 15-12 9-1 3h72l-6-7-16-16-14-8zm22 5v4l14 15 8 7h10l-2-4-5-4-7-8-5-4-10-6zm16 2v3l19 19 3 2h6l-2-4-14-14zm17 4 1 4 11 12 5 4h7l-2-4-11-11-8-5zm14 3 6 7 10 10h5l-2-4-8-8-8-5zm-96 1-4 5-2 4 5-2 6-5v-2zm109 0v3l4 2 2 4 5 5h2v2l3 3h-136l-4 4-8 14v1h165l-2-5-19-32-1-1zm-148 6-5 15-3 3v7l2 5h2l5-9 2-1 1 7 5 3-1-5-4-11-3-14zm12 38-1 10-4 6v5l7 7h2l1-10 4-7 5 11 2-4 3-5 2-1 1 7 4 9 4 13 3-1-1 2h-3v5l8 5 3-1-3-6h3l-2-6-1-2 11 1-1-6 10 4 5 4 5 10 6-2 7 1 3 5 3 8h2l5-13 7-1 6 2 5-10 9-6 6-2v6l10-1-3 6v2h3l-2 7 6-2 4-3 1-13 5-13 2-4v-5l5 5 1 4h2l3-9 3 1 3 8v7l4-2 6-7-5-10-1-9h-6l-8 5-13 6-14 3h-18l-13-3h-4v7l-5 4-8 1-6-3-2-3v-6l-8 1-9 2h-18l-16-4-16-8-3-2zm34 0 3 3 7 3 6 1h13l4-2-8-5zm81 0-9 5v1l5 1h12l9-2 7-4v-1zm-29 3-2 8v9l3 3 2-2v-10l-2-8zm13 49-7 11h6l3-5v-5zm-26 1v6l3 4 5 1-1-4-5-7zm-3 16-4 3v2l10-3 1-2zm27 0v2l10 3-2-4-1-1z" fill="#192866"/>
<path transform="translate(811,177)" d="m0 0h17l3 3 8 16 11 24 8 16 2 6h2l2-6 13-27 11-23 4-8 2-1h16v3l-6 2 1 25 3 41 1 7 9 1v3h-32l-1-3 8-2 2-2v-21l-3-40-16 34-7 16-9 17h-4l-14-29-10-22-7-14v-2h-2v13l-2 34v14l4 3 5 1-1 3h-25v-3l7-2 2-3 2-22 2-34v-11l-3-3-4-2z" fill="#202F6B"/>
<path transform="translate(1502,489)" d="m0 0h30l13 4 8 6 4 8v10l-5 10-9 6h-2l1 3 8 7 13 12 7 7 8 5 5 2 7 2v2h-15l-12-4-10-8-16-16-8-6-17-1 1 25 2 4 10 2 1 2-2 1h-34l-1-3 9-2 2-3v-69l-11-2 1-3zm10 3v43h17l7-3 5-4 4-10v-9l-3-9-7-6-5-2z" fill="#23326D"/>
<path transform="translate(1207,332)" d="m0 0h17l12 2 12 6 5 7 1 3v12l-4 8-8 6-4 1 19 19 5 4 5 5 9 6 11 3v3h-11l-13-3-10-7-15-15-11-9-5-1h-11v26l2 3 9 1 1 3h-37l1-3 8-1 3-5v-63l-3-5-8-1-1-3zm3 3v44h15l10-4 6-8 1-4v-12l-3-8-6-5-9-3z" fill="#23326D"/>
<path transform="translate(1360,176)" d="m0 0h28l12 3 10 7 4 9v9l-5 10-5 4-5 3v2l8 7 7 6 4 5 5 4v2l4 2 10 6 10 3v2h-15l-10-3-9-6-16-16-11-9h-16v24l2 4 10 2v3h-36v-3l11-2v-72l-11-2 1-3zm9 3v43l2 1h11l10-3 7-6 3-9v-8l-3-9-4-5-9-4z" fill="#23326D"/>
<path transform="translate(969,177)" d="m0 0h18l4 2 7 8 8 8 7 8 12 12 7 8 10 10v2l3 1 4 4v-54l-1-4-11-2 1-3h28l1 3-9 2-1 1-1 77h-5l-7-8-8-8v-2l-3-1-7-8-7-7-7-8-11-11-7-8-8-8v60l4 4 8 1-1 3h-28l-1-3 8-2 2-3v-68l-10-3z" fill="#26356F"/>
<path transform="translate(1119,490)" d="m0 0h20l12 12 7 8 12 12 7 8 13 13 7 8 2 2v-56l-4-3-7-1v-3h29v3l-9 2-1 2-1 76-5-1v-2h-2l-7-8-10-10-7-8-11-11-7-8-11-11-7-8-3-2v58l1 5 11 2 1 2-2 1h-27l-2-1v-2l10-2 1-72-10-2z" fill="#25346E"/>
<path transform="translate(689,101)" d="m0 0h4v550h-4z" fill="#142463"/>
<path transform="translate(1804,332)" d="m0 0h18l15 3 8 5 6 7 1 3v11l-5 10-9 6h-2l4 5 8 7 14 14 10 7 13 4v3h-11l-13-3-9-6-10-10-5-4-5-5-9-7h-15v24l3 5 9 1 1 3h-37l1-3 8-1 3-7v-59l-2-6-1-1-8-1-1-3zm4 3-1 1v42l1 1h15l8-3 5-4 4-10v-11l-5-10-6-4-7-2z" fill="#1C2C68"/>
<path transform="translate(1328,489)" d="m0 0h35l14 3 11 6 5 4 6 9 3 9v16l-5 13-6 8-8 7-10 5-15 3h-44l-1-3 9-2 2-4v-65l-2-4-9-2v-2zm8 3v75l4 2h18l11-3 9-6 6-7 5-12 1-4v-15l-4-12-6-8-6-5-13-5z" fill="#26356F"/>
<path transform="translate(828,332)" d="m0 0h22l16 3 14 7 7 7 4 8 2 6v17l-5 13-8 10-10 7-11 4-5 1h-50l1-3 7-1 3-4v-66l-1-4-10-2v-1zm-1 3v75l2 2h24l10-4 8-6 6-9 4-12v-15l-4-12-6-9-9-6-9-3-5-1z" fill="#24326D"/>
<path transform="translate(1540,176)" d="m0 0h14l12 3 10 5 10 9 6 12 1 4v14l-4 13-8 11-11 8-10 4-6 1h-15l-13-3-11-6-9-9-5-10-1-3v-19l4-11 6-8 9-8 8-4zm-2 3-10 4-8 7-5 8-3 11v15l3 10 5 9 8 8 10 5 5 1h13l10-4 6-5 6-10 3-12v-13l-4-13-5-8-7-7-10-5-5-1z" fill="#1B2A67"/>
<path transform="translate(1680,334)" d="m0 0h34l-1 3-9 2-1 3v46l3 9 6 7 9 4 6 1h10l9-2 8-5 4-5 3-9v-43l-2-5-3-2-7-2v-2h31l-1 3-9 2-1 4-1 46-4 11-6 8-8 5-10 3-7 1h-8l-14-3-10-6-6-7-4-11-1-49-2-3-7-1z" fill="#1B2A67"/>
<path transform="translate(1430,334)" d="m0 0h34l-1 3-9 2-1 3v46l4 11 7 6 7 3 6 1h10l9-2 8-5 4-5 3-9v-44l-3-5-9-3v-2h31l-1 3-7 2-3 4-1 46-4 11-6 8-8 5-10 3-7 1h-8l-14-3-10-6-6-7-3-7-1-5-1-48-2-3-7-1z" fill="#1C2B68"/>
<path transform="translate(1270,177)" d="m0 0h60l2 1 1 16h-3l-4-9-3-2-29-1v31l28-1 2-8 3 1v23h-3l-3-8-2-1-25-1 1 35h30l5-3 6-11 2 1-2 18-1 1h-67l-1-3 10-1 4-3 1-3v-62l-2-5-10-2z" fill="#313F76"/>
<path transform="translate(1412,490)" d="m0 0h60l2 6v12h-2l-4-10-3-2h-29l-1 30 27-1 4-8h2v24l-3-1-3-7-1-1-26-1 1 32 3 3h27l6-3 5-11h2l-1 18-2 2h-66l-2-2 1-1 9-1 4-2 1-2v-66l-3-4-9-1z" fill="#27356F"/>
<path transform="translate(904,334)" d="m0 0h62l1 17h-3l-3-9-2-2-31-1v31l25-1 4-4 2-5 2 1v24h-3l-2-9-5-1h-22v33l1 1h30l4-2 6-12 2 1-2 19h-69l1-3 10-1 3-2 1-3v-63l-3-5-9-1z" fill="#23326D"/>
<path transform="translate(1925,332)" d="m0 0h9l3 4 13 35 14 36 4 4 6 2v2h-36l1-3 11-1 1-5-9-25v-2l-27 1-7 20-2 5v5l1 1 9 1 2 2-1 1h-30v-2l9-3 4-9 18-49 5-14zm3 13-4 9-6 16v3h21l-2-9-7-18z" fill="#1C2B68"/>
<path transform="translate(1259,489)" d="m0 0h10l5 10 6 16 16 43 4 8 9 4-1 2h-35v-3l10-1 2-1-1-9-7-18v-4h-27l-10 27 1 4 11 2v2l-2 1h-27l-1-3 9-2 2-6 7-18 8-23 10-26zm3 12-10 27 1 2h20l1-3-8-20-3-6z" fill="#21306B"/>
<path transform="translate(1041,332)" d="m0 0h9l3 4 9 24 18 47 4 4 6 2v2h-36l1-3 11-1 1-5-9-25v-2l-27 1-7 20-2 5v5l1 1 10 1v3h-30v-2l9-3 4-9 17-46 7-20zm3 13-4 9-6 16v3h21l-2-9-7-18z" fill="#1C2C68"/>
<path transform="translate(1673,489)" d="m0 0h11l16 42 11 29 3 6 9 4-1 2h-34l-1-3 10-1 2-1-1-9-7-19v-3h-28l-3 10-6 17 1 4 11 2-1 3h-27l-2-1v-2l9-3 7-18 8-21 7-20 5-13zm3 12-10 27 1 2h20l1-3-10-25z" fill="#1F2E6A"/>
<path transform="translate(1063,489)" d="m0 0h11l13 34 15 39 2 4 9 3-1 3h-34l-1-3 10-1 2-1v-7l-8-21v-3h-28l-1 5-7 19v6l3 2 8 1-1 3h-27l-2-1v-2l9-3 5-12 18-49 4-11zm3 12-9 24v5h21l-1-6-9-23z" fill="#202F6B"/>
<path transform="translate(1137,332)" d="m0 0 15 1 13 3h6v20h-3l-4-9-6-7-8-3-11-1-12 3-8 6-5 6-5 12-1 6v12l3 12 5 8 9 8 13 4 12-1 9-3 1-1v-19l-2-4-2-1-9-1v-3l33 1v2l-6 2-1 2-1 21-4 3-14 4-14 2-13-1-9-3-9-5-8-9-5-11-1-5v-14l4-13 7-10 7-6 12-6z" fill="#1F2F6A"/>
<path transform="translate(974,489)" d="m0 0h17l14 3h8v21l-3-1-6-12-9-6-4-1h-14l-11 4-8 7-6 12-2 9v14l4 13 6 8 5 4 8 4 4 1h13l10-3 3-1-1-19-3-5-11-2v-2h34v2l-7 2-1 5-1 20-11 4-16 3h-14l-14-4-8-6-8-9-4-9-1-5v-15l4-13 8-11 10-7 10-4z" fill="#1A2A67"/>
<path transform="translate(802,490)" d="m0 0h33v3l-8 1 2 7 11 17 8 13 3 1 2-5 13-22 3-5v-5l-8-3 1-2h29v3l-9 3-5 5-8 13-15 25v25l2 3 9 2v2l-2 1h-32l-1-3 10-2 1-4v-22l-16-26-10-15-6-5-8-2z" fill="#26356F"/>
<path transform="translate(1184,176)" d="m0 0h76l2 20h-3l-3-12-4-1h-24v67l2 4 2 1 10 1v3h-40v-3l10-1 3-1v-71h-24l-3 3-4 11h-2v-9z" fill="#2F3D75"/>
<path transform="translate(1597,332)" d="m0 0 3 1h69l2-1 2 1 1 11v9h-2l-4-12-2-1-26-1 1 69 3 3 10 1 1 3h-41l1-3 10-1 2-1 1-3 1-68-26 1-3 3-3 10h-2v-9l1-11z" fill="#192866"/>
<path transform="translate(1383,332)" d="m0 0 14 1 12 3h8l1 5v14l-3-1-6-9-5-4-6-3-9-2-12 1-10 4-8 7-6 12-1 4v17l3 10 6 10 7 6 8 4 9 2 11-1 9-3 8-6 7-9 1 4-5 12-2 3-27 4-13-1-13-4-9-6-8-9-4-8-2-16 3-14 6-10 8-8 12-6z" fill="#1D2C69"/>
<path transform="translate(1139,176)" d="m0 0h12l7 2h8l2 11v5l-3-1-4-6-6-5-5-2h-9l-6 3-3 4v8l4 6 9 7 14 9 9 8 4 8v11l-3 6-8 7-9 3h-12l-8-2h-6-3l-2-13v-6h2l5 9 7 6 6 2h7l10-4 3-5 1-7-4-8-7-6-18-12-7-6-4-6-1-10 3-7 5-5z" fill="#1A2966"/>
<path transform="translate(1533,334)" d="m0 0h38l-1 3-11 1-2 3v67l1 1h28l8-7 4-6h2l-1 5-8 14h-58l1-3 8-1 2-2v-68l-3-3-7-1z" fill="#1A2967"/>
<path transform="translate(1457,177)" d="m0 0h28l2 2-9 4-1 2v66l4 4 6 2-1 2h-30l-1-3 7-2 2-4v-64l-2-4-7-2v-2z" fill="#2F3D75"/>
<path transform="translate(928,177)" d="m0 0h29l1 3-9 2-1 4v64l2 4 8 2-1 3h-30v-3l8-2v-70l-4-3-4-1z" fill="#22316C"/>
<path transform="translate(1079,177)" d="m0 0h28l2 2-9 4-1 2v66l4 4 6 2-1 2h-30v-3l7-3 1-3v-64l-2-4-7-2v-2z" fill="#2F3D74"/>
<path transform="translate(1599,490)" d="m0 0h30v3l-7 2-2 3v66l4 4 6 2-2 2h-28l-2-1v-2l8-3 1-3v-65l-4-4-5-2z" fill="#2C3B73"/>
<path transform="translate(1294,334)" d="m0 0h31l-1 3-7 2-1 2v67l3 3 6 2v2h-31l1-3 6-2 2-4v-64l-3-4-6-2z" fill="#24336E"/>
<path transform="translate(264,445)" d="m0 0h7l15 7 12 3h17l12-3 15-7h7l8 5-2 1-1 3-8 1-11 6-10 4-13 2h-11l-16-3-17-8-4-2-8 2-1-4h2v-3z" fill="#1C2B68"/>
<path transform="translate(477,495)" d="m0 0h3l5 10v2l11 1 3 1-2 4-6 6v15l-5-2-6-3-5 1-7 4h-3l1-7v-8l-8-8v-2l10-2h4l2-6z" fill="#192866"/>
<path transform="translate(306,137)" d="m0 0h2l5 10v2l14 2v3l-8 7 1 15-5-1-8-4-10 5h-3l1-14-9-9 1-2 14-2 1-5z" fill="#1A2A67"/>
<path transform="translate(306,576)" d="m0 0h2l5 10v2l14 2-1 4-7 7 1 14-5-1-7-4-6 2-5 3h-3l1-14-9-9 1-2 14-2 1-4z" fill="#1A2966"/>
<path transform="translate(134,222)" d="m0 0 3 1 5 11 14 2-2 4-7 7 1 14-5-1-6-3-6 1-6 3h-3l1-14-9-9 1-2 13-2z" fill="#182865"/>
<path transform="translate(92,409)" d="m0 0 3 1 5 10 14 3-2 4-7 7 1 14-6-2-5-3-5 1-8 4h-2l1-15-8-7-1-3 11-2h4l2-6z" fill="#182765"/>
<path transform="translate(520,308)" d="m0 0h2l5 10v2l14 2-1 4-7 7 1 14-5-1-6-3-7 1-5 3h-3l1-14-9-9 1-2 14-2 1-4z" fill="#182765"/>
<path transform="translate(92,308)" d="m0 0 3 1 5 10 6 2 7 1v3l-8 8 1 14-5-1-6-3-6 1-6 3h-3l1-14-8-8v-3l14-2 2-6z" fill="#172765"/>
<path transform="translate(477,222)" d="m0 0 3 1 6 11 13 2-2 4-6 6v15l-6-2-4-2-7 1-6 3h-3l1-7v-8l-8-7v-3l13-2z" fill="#182865"/>
<path transform="translate(403,162)" d="m0 0h2l6 11 14 3-1 3-7 6-1 5 1 11-6-2-6-3-6 2-6 3h-2l1-14-9-9v-2l12-2 3-2z" fill="#1A2967"/>
<path transform="translate(136,495)" d="m0 0 3 1 5 10 14 3-2 4-6 6v15l-6-2-5-3-5 1-7 4h-3l1-15-8-8v-2l11-2h3l2-6z" fill="#172765"/>
<path transform="translate(211,161)" d="m0 0 3 4 4 8 8 2 6 1-2 4-7 7 1 14-6-2-7-3-10 5h-3l1-15-8-8v-2l14-2 2-6z" fill="#182765"/>
<path transform="translate(404,555)" d="m0 0 3 3 4 8 14 3-2 4-6 6v15l-6-2-5-3-4 1-8 4h-3l1-7v-8l-8-8v-2l14-3 5-10z" fill="#172765"/>
<path transform="translate(210,555)" d="m0 0 3 1 5 10 9 2 5 1-2 4-6 6v15l-6-2-5-3-6 2-6 3h-3l1-15-8-8v-2l14-3z" fill="#172765"/>
<path transform="translate(522,408)" d="m0 0 3 3 5 9 13 2-1 4-7 6 1 16-11-5-7 1-8 4-1-3 2-11-7-8-2-1 1-3 12-2z" fill="#182866"/>
<path transform="translate(179,377)" d="m0 0h2v2l6 2 3 3 1-6 2 1 2 7 6-7h2v-2l3 1 1 10 1 4-4 12-3 3-1 7-6-5-12-4-7-8-2-6v-6l6 2z" fill="#172765"/>
<path transform="translate(302,325)" d="m0 0h8l7 3 5 6v12l-1 5 1 7v2l-4-2v-2h-2l-1 3-4 2-2-4v-5l6-4 2-5-1-6-2-5-9-2-6 3-3 6 1 8 5 4 3 3-1 4h-3l-1 2-3-2v-2h-2v2h-2l-1 3-2-1 2-5-1-2v-4l-1-13 4-7zm10 31-1 2h2z" fill="#27366F"/>
<path transform="translate(390,294)" d="m0 0 6 3v-3l4 2 3 5 2 3v10l1 4-4-3-9-2-6-5-3-4v-2h5v-7z" fill="#182765"/>
<path transform="translate(215,294)" d="m0 0h2v3l6-3 1 1v7h5l-2 5-7 6-12 3v-11l4-8z" fill="#172765"/>
<path transform="translate(302,334)" d="m0 0 7 1 3 6v6l-4 1-1 17-2 1-1-14 1-4-4-1-1-11z" fill="#1D2C69"/>
<path transform="translate(1619,458)" d="m0 0h5l2 4-1 3-12 9-9 6h-2l2-4 10-14z" fill="#1B2B68"/>
<path transform="translate(306,317)" d="m0 0 6 2 4 2h3l-4 4-5-3-4 1-2-1-4 1-1-4 5-1v2h2z" fill="#364479"/>
<path transform="translate(286,328)" d="m0 0h3v9h-2l1 4-5-1v-3h2l-1-3 2-1z" fill="#545F8D"/>
<path transform="translate(326,340)" d="m0 0 4 1v6h-6z" fill="#3F4C7F"/>
<path transform="translate(294,321)" d="m0 0h3l2 4-5 1-1-4z" fill="#475485"/>
<path transform="translate(325,329)" d="m0 0 3 1v2l-5 1z" fill="#7781A5"/>
<path transform="translate(357,452)" d="m0 0 1 4-4-1z" fill="#596591"/>
<path transform="translate(419,411)" d="m0 0h3l-1 3-3-1z" fill="#2D3C74"/>
<path transform="translate(284,345)" d="m0 0h5l-2 2-4-1z" fill="#475485"/>
<path transform="translate(370,478)" d="m0 0h2v3h-3z" fill="#4E5A89"/>
<path transform="translate(201,344)" d="m0 0h2v3h-3z" fill="#313F76"/>
<path transform="translate(214,316)" d="m0 0 2 1-1 3-2-1z" fill="#313F76"/>
<path transform="translate(204,309)" d="m0 0 3 1-1 2-3-1z" fill="#6B759C"/>
<path transform="translate(223,290)" d="m0 0h3l-1 3h-2z" fill="#313F76"/>
<path transform="translate(242,478)" d="m0 0 2 1v2h-3z" fill="#354379"/>
<path transform="translate(360,467)" d="m0 0h3l-1 3-2-1z" fill="#354379"/>
<path transform="translate(391,442)" d="m0 0 3 1-1 2h-2z" fill="#354379"/>
<path transform="translate(220,442)" d="m0 0h2v3l-3-1z" fill="#354379"/>
<path transform="translate(192,411)" d="m0 0 3 1-1 2h-2z" fill="#142463"/>
<path transform="translate(407,408)" d="m0 0h3l-1 3-2-1z" fill="#142463"/>
<path transform="translate(203,408)" d="m0 0h3l-1 3-2-1z" fill="#142463"/>
<path transform="translate(184,375)" d="m0 0h2v3l-3-1z" fill="#56628F"/>
<path transform="translate(295,358)" d="m0 0h2l1 4-3-2z" fill="#99A0BB"/>
<path transform="translate(411,344)" d="m0 0 2 1v2h-3z" fill="#142463"/>
<path transform="translate(423,341)" d="m0 0 3 1-1 2h-2z" fill="#142463"/>
<path transform="translate(188,341)" d="m0 0h2v3l-3-1z" fill="#142463"/>
<path transform="translate(321,326)" d="m0 0 1 2 2 1h-4z" fill="#354379"/>
<path transform="translate(398,316)" d="m0 0 2 1v2h-3z" fill="#354379"/>
<path transform="translate(407,309)" d="m0 0h3l-1 3-2-1z" fill="#142463"/>
<path transform="translate(388,290)" d="m0 0h2v3l-3-1z" fill="#354379"/>
<path transform="translate(427,375)" d="m0 0 3 1-2 2z" fill="#142463"/>
<path transform="translate(412,375)" d="m0 0h3v2h-3z" fill="#616C96"/>
<path transform="translate(289,324)" d="m0 0 3 1-1 2-2-1z" fill="#8890B0"/>
<path transform="translate(322,325)" d="m0 0h3l-1 3v-2z" fill="#9FA6BF"/>
<path transform="translate(198,375)" d="m0 0h2v2h-2z" fill="#142463"/>
<path transform="translate(316,359)" d="m0 0v3z" fill="#142463"/>
<path transform="translate(286,349)" d="m0 0 2 1-2 1z" fill="#616C96"/>
<path transform="translate(295,363)" d="m0 0" fill="#142463"/>
<path transform="translate(328,337)" d="m0 0 2 1z" fill="#142463"/>
<path transform="translate(321,361)" d="m0 0" fill="#FDFDFD"/>
<path transform="translate(318,361)" d="m0 0" fill="#142463"/>
<path transform="translate(294,361)" d="m0 0" fill="#142463"/>
<path transform="translate(301,360)" d="m0 0" fill="#FDFDFD"/>
<path transform="translate(286,358)" d="m0 0" fill="#FDFDFD"/>
<path transform="translate(324,357)" d="m0 0" fill="#142463"/>
<path transform="translate(288,357)" d="m0 0" fill="#FDFDFD"/>
<path transform="translate(327,350)" d="m0 0" fill="#FDFDFD"/>
<path transform="translate(324,349)" d="m0 0" fill="#FDFDFD"/>
<path transform="translate(312,318)" d="m0 0" fill="#FDFDFD"/>
</svg>
